<?xml version="1.0" encoding="utf-8"?>
<!-- Generator: Adobe Illustrator 16.0.4, SVG Export Plug-In . SVG Version: 6.00 Build 0)  -->
<!DOCTYPE svg PUBLIC "-//W3C//DTD SVG 1.1//EN" "http://www.w3.org/Graphics/SVG/1.1/DTD/svg11.dtd">
<svg version="1.1" id="Layer_1" xmlns="http://www.w3.org/2000/svg" xmlns:xlink="http://www.w3.org/1999/xlink" x="0px" y="0px"
	 width="176px" height="44px" viewBox="0 0 176 44" enable-background="new 0 0 176 44" xml:space="preserve">
<g>
	<path fill="#FFFFFF" d="M154,33.406c-0.168,0-0.324-0.056-0.453-0.137l-10.566-7.049c-0.101-0.063-0.183-0.151-0.244-0.254l0,0
		c-0.061-0.093-0.099-0.205-0.113-0.317l0,0v-0.006l0,0V25.64c0,0,0,0-0.004,0v-0.011l0,0c0-0.005,0-0.02,0-0.023l0,0
		c0,0,0,0,0-0.006c0,0,0,0-0.003,0v-0.005l0,0v-0.009l0,0v-0.005l0,0v-0.006l0,0c0-0.009,0-0.009,0-0.009l0,0
		c0-0.006,0-0.006,0-0.006s0,0,0-0.005l0,0v-0.004v-7.086c0-0.005,0-0.005,0-0.008v-0.002v-0.003c0-0.004,0-0.004,0-0.004
		c0-0.003,0-0.003,0-0.003c0-0.002,0-0.002,0-0.002c0-0.005,0-0.005,0-0.005c0-0.003,0-0.003,0-0.003c0-0.002,0-0.002,0-0.002
		c0-0.003,0-0.003,0-0.007c0,0,0,0,0-0.003c0,0,0,0,0-0.002c0,0,0,0,0-0.005c-0.002,0.005,0.007,0.005,0.003-0.005c0,0,0,0,0-0.002
		c0,0,0-0.008,0-0.02l0,0v-0.002c0-0.005,0-0.005,0-0.005V18.38c0-0.002,0.004-0.002,0.004-0.002v-0.003c0-0.004,0-0.004,0-0.004
		c0-0.003,0-0.003,0-0.003c0-0.002,0-0.002,0-0.002c0-0.005,0-0.005,0-0.008l0,0c0,0,0-0.002,0-0.005h0.003
		c0-0.017,0.003-0.031,0.005-0.048l0,0c0-0.003,0-0.003,0.005-0.005l0,0c0-0.005,0-0.005,0-0.007l0,0
		c0.002-0.02,0.009-0.034,0.013-0.054l0,0c0.003-0.002,0.003-0.002,0.003-0.005l0,0c0-0.002,0-0.002,0-0.007l0,0
		c0.006-0.012,0.009-0.024,0.014-0.039l0,0v-0.005c0.005,0,0.005-0.002,0.005-0.002v-0.002c-0.005,0,0.006-0.005,0.004-0.008
		c0,0,0,0,0-0.002c0,0,0,0,0.002-0.002l0,0c0-0.005,0-0.005,0-0.007h0.004c0-0.002,0-0.002,0-0.007l0,0
		c0.003-0.002,0.003-0.002,0.003-0.002c0-0.002,0-0.002,0-0.002c0.003-0.002,0.003-0.002,0.003-0.007c0,0,0-0.002,0.002-0.002
		c0,0,0,0,0-0.002v-0.005c0.004,0,0.004,0,0.004-0.002c0,0,0,0,0-0.002c0.003,0,0.006,0.01,0.003-0.007l0,0
		c0.003-0.003,0.003-0.003,0.003-0.005l0,0c0.005-0.005,0.005-0.005,0.005-0.007l0,0c0.002,0,0.002-0.002,0.002-0.002
		c0-0.002,0-0.002,0-0.002l0.004-0.005c0-0.003,0-0.003,0-0.003c0.006-0.009,0.012-0.019,0.016-0.026l0,0
		c0.002-0.005,0.002-0.005,0.002-0.008l0,0c0.004,0,0.004-0.002,0.004-0.007c0,0,0,0,0.002,0c0,0,0-0.002,0.005-0.002
		c0,0,0,0,0-0.002c0,0,0-0.002,0.002-0.002l0,0c0.01-0.017,0.02-0.032,0.028-0.044v-0.005c0.004,0,0.004-0.003,0.004-0.003l0,0
		c0.003-0.002,0.003-0.002,0.006-0.007l0,0c0-0.002,0.003-0.002,0.003-0.005l0,0c0.006-0.007,0.008-0.012,0.017-0.019
		c0,0-0.004,0,0.007-0.005l0,0c0-0.005,0.002-0.005,0.002-0.007l0,0c0.003,0,0.003-0.003,0.003-0.003s0.004,0,0.004-0.002
		c0,0,0,0,0.002-0.005l0,0c0-0.003,0.004-0.003,0.004-0.003v-0.002c0.002,0,0.002,0,0.002-0.005h0.005c0-0.002,0-0.002,0-0.002
		c0.002,0,0.002-0.003,0.002-0.003h0.004c0.04-0.046,0.09-0.088,0.144-0.125l0,0l10.582-7.069c0.27-0.182,0.621-0.182,0.89,0
		l10.581,7.069c0.002,0.002-0.005,0.002,0.005,0.002l0,0c0.002,0.003,0.002,0.003,0.008,0.003l0,0
		c0.188,0.131,0.31,0.334,0.337,0.562l0,0c0,0.002,0,0.005,0,0.005l0,0c0,0.004,0,0.007,0,0.007l0,0
		c0.005,0.01,0.005,0.022,0.005,0.032l0,0c0,0.002,0,0.002,0,0.002c0,0.002,0.002,0.002,0.002,0.002c0,0.003,0,0.003,0,0.003
		c0,0.005,0,0.005,0,0.005c0,0.002,0,0.002,0,0.002c0,0.003,0,0.003,0,0.003c0,0.004,0,0.004,0,0.007c0,0,0,0,0,0.002
		c0,0,0,0,0,0.003c0,0,0,0,0,0.005c0,0,0,0,0,0.002c0,0,0,0,0,0.003c0,0,0,0,0,0.004v0.003v0.002c0,0.003,0,0.003,0,0.008v7.086
		v0.004l0,0c0,0.005,0,0.005,0,0.005s0,0,0,0.006l0,0c0,0,0,0,0,0.009l0,0v0.006l0,0v0.005l0,0v0.009l0,0c0,0.005,0,0.005,0,0.005
		h-0.002c0,0.006,0,0.006,0,0.006l0,0c0,0.004,0,0.015,0,0.019l0,0v0.005l0,0c0,0,0,0,0,0.011h-0.005c0,0,0,0,0,0.004l0,0v0.006l0,0
		v0.005l0,0v0.009h-0.003c0,0.011-0.002,0.025-0.008,0.045l0,0c0,0,0,0,0,0.004l0,0c0,0,0,0-0.002,0.006l0,0l0,0
		c0,0.005,0,0.005,0,0.005l0,0v0.009c-0.002,0.006-0.004,0.021-0.01,0.03l0,0l-0.002,0.004l0,0v0.011l0,0
		c-0.003,0-0.003,0.004-0.003,0.004l0,0v0.005h-0.005v0.011l0,0l-0.002,0.004l0,0v0.006h-0.003v0.005c0,0,0,0-0.002,0.009l0,0
		c0,0,0,0,0,0.007c0,0,0,0-0.006,0c0,0,0,0,0,0.004l0,0c0,0-0.002,0-0.002,0.01l0,0c0,0,0,0-0.002,0.005l0,0c0,0,0,0,0,0.005l0,0
		c-0.006,0-0.006,0-0.006,0.004l0,0c-0.058,0.147-0.16,0.274-0.295,0.367l-10.571,7.049C154.327,33.351,154.171,33.406,154,33.406z
		 M144.864,25.552l8.334,5.551v-5.126l-4.489-3.004L144.864,25.552z M154.804,25.977v5.126l8.331-5.551l-3.842-2.579L154.804,25.977
		z M150.153,22.006L154,24.584l3.847-2.578L154,19.431L150.153,22.006z M144.222,19.966v4.08l3.047-2.04L144.222,19.966z
		 M160.735,22.006l3.042,2.04v-4.078L160.735,22.006z M144.864,18.466l3.845,2.576l4.489-3.006v-5.138L144.864,18.466z
		 M154.804,18.035l4.489,3.006l3.844-2.576l-8.333-5.568V18.035z"/>
</g>
<path fill="#FFFFFF" d="M21.85,33c-6.1,0-11-4.9-11-11c0-6.1,4.9-11,11-11s11,4.9,11,11C32.85,28.1,27.95,33,21.85,33z M31.15,23.5
	c-0.3-0.1-2.899-0.9-5.899-0.4c1.199,3.4,1.699,6.102,1.801,6.7C29.25,28.4,30.75,26.1,31.15,23.5z M25.55,30.7
	c-0.101-0.8-0.7-3.7-2-7.101c0,0,0,0-0.101,0c-5.301,1.801-7.199,5.5-7.399,5.899c1.6,1.2,3.6,2,5.8,2
	C23.15,31.4,24.35,31.1,25.55,30.7z M14.85,28.3c0.2-0.399,2.8-4.6,7.6-6.2c0.102,0,0.2-0.1,0.4-0.1c-0.2-0.5-0.5-1.1-0.8-1.6
	c-4.7,1.4-9.2,1.3-9.7,1.3c0,0.1,0,0.2,0,0.3C12.45,24.4,13.35,26.6,14.85,28.3z M12.65,20.1c0.4,0,4.3,0,8.7-1.1
	c-1.6-2.8-3.2-5.1-3.5-5.4C15.25,14.8,13.25,17.2,12.65,20.1z M19.65,12.9c0.3,0.3,2,2.7,3.5,5.5c3.3-1.3,4.8-3.2,4.9-3.4
	c-1.7-1.5-3.8-2.4-6.2-2.4C21.05,12.6,20.35,12.7,19.65,12.9z M29.15,16.1c-0.2,0.3-1.8,2.3-5.2,3.7c0.2,0.4,0.4,0.9,0.602,1.4
	c0.1,0.2,0.1,0.3,0.199,0.5c3.101-0.4,6.199,0.2,6.5,0.3C31.25,19.7,30.45,17.7,29.15,16.1z"/>
<path fill="#FFFFFF" d="M121,15.2c-0.799,0.4-1.699,0.6-2.6,0.7c0.898-0.6,1.6-1.4,2-2.5c-0.9,0.5-1.801,0.9-2.9,1.1
	c-0.799-0.9-2-1.4-3.299-1.4c-2.5,0-4.5,2-4.5,4.5c0,0.4,0,0.7,0.1,1c-3.801-0.2-7.1-2-9.301-4.7c-0.4,0.7-0.6,1.4-0.6,2.3
	c0,1.6,0.801,2.9,2,3.8c-0.699,0-1.4-0.2-2-0.6c0,0,0,0,0,0.1c0,2.2,1.6,4,3.6,4.4c-0.4,0.1-0.799,0.199-1.199,0.199
	c-0.301,0-0.6,0-0.801-0.101c0.6,1.8,2.201,3.101,4.201,3.101c-1.5,1.199-3.5,1.899-5.602,1.899c-0.398,0-0.699,0-1.1-0.101
	c2,1.301,4.398,2,6.898,2c8.301,0,12.801-6.899,12.801-12.799c0-0.2,0-0.4,0-0.6C119.6,16.9,120.4,16.1,121,15.2z"/>
<g>
	<path fill="#FFFFFF" d="M58.083,16.636h-0.025c-1.506,0-2.468-1.029-2.468-2.318c0-1.313,1.003-2.318,2.521-2.318
		c1.532,0,2.48,1.004,2.493,2.318C60.619,15.607,59.643,16.636,58.083,16.636z M60.321,31.9h-4.474V18.466h4.474V31.9z M76.411,31.9
		h-4.459v-7.186c0-1.804-0.651-3.036-2.264-3.036c-1.234,0-1.967,0.826-2.291,1.627c-0.109,0.297-0.15,0.689-0.15,1.096V31.9h-4.459
		c0.055-12.173,0-13.436,0-13.436h4.459v1.953h-0.025c0.582-0.921,1.639-2.264,4.053-2.264c2.941,0,5.137,1.925,5.137,6.045
		L76.411,31.9L76.411,31.9z"/>
</g>
</svg>
