<?xml version="1.0" encoding="utf-8"?>
<!-- Generator: Adobe Illustrator 16.0.4, SVG Export Plug-In . SVG Version: 6.00 Build 0)  -->
<!DOCTYPE svg PUBLIC "-//W3C//DTD SVG 1.1//EN" "http://www.w3.org/Graphics/SVG/1.1/DTD/svg11.dtd">
<svg version="1.1" id="Layer_1" xmlns="http://www.w3.org/2000/svg" xmlns:xlink="http://www.w3.org/1999/xlink" x="0px" y="0px"
	 width="60px" height="60px" viewBox="0 0 60 60" enable-background="new 0 0 60 60" xml:space="preserve">
<path fill="none" stroke="#372149" stroke-miterlimit="10" d="M20.224,46.894h-7.506V22.873h7.506V46.894z M16.28,19.871h-0.054
	c-2.715,0-4.476-1.837-4.476-4.164c0-2.371,1.812-4.169,4.582-4.169c2.769,0,4.473,1.793,4.526,4.165
	C20.859,18.028,19.102,19.871,16.28,19.871z M50.248,46.894h-8.507V34.465c0-3.255-1.332-5.474-4.259-5.474
	c-2.24,0-3.482,1.497-4.065,2.944c-0.217,0.516-0.183,1.238-0.183,1.959v12.999h-8.428c0,0,0.107-22.019,0-24.021h8.428v3.771
	c0.5-1.648,3.191-4,7.492-4c5.328,0,9.521,3.457,9.521,10.894V46.894z"/>
</svg>
