<svg width="25" height="25" viewBox="0 0 25 25" fill="none" xmlns="http://www.w3.org/2000/svg">
<path d="M11.8637 1.79287C12.2411 0.727878 13.7472 0.727878 14.1246 1.79287L14.6589 3.30073C15.9876 7.05065 18.9376 10.0007 22.6875 11.3294L24.1954 11.8637C25.2604 12.2411 25.2604 13.7472 24.1954 14.1246L22.6875 14.6588C18.9376 15.9876 15.9876 18.9376 14.6589 22.6875L14.1246 24.1954C13.7472 25.2604 12.2411 25.2604 11.8637 24.1954L11.3294 22.6875C10.0007 18.9376 7.05067 15.9876 3.30074 14.6588L1.79289 14.1246C0.727892 13.7472 0.727892 12.2411 1.79289 11.8637L3.30074 11.3294C7.05067 10.0007 10.0007 7.05065 11.3294 3.30073L11.8637 1.79287Z" fill="#D95F27"/>
</svg>
