<svg width="34" height="34" viewBox="0 0 34 34" fill="none" xmlns="http://www.w3.org/2000/svg">
<g filter="url(#filter0_d_3_9)">
<path d="M15.8696 5.79875C16.2469 4.73375 17.7531 4.73375 18.1304 5.79875L18.6647 7.3066C19.9934 11.0565 22.9435 14.0066 26.6934 15.3353L28.2013 15.8696C29.2662 16.2469 29.2662 17.7531 28.2013 18.1304L26.6934 18.6647C22.9435 19.9934 19.9934 22.9435 18.6647 26.6934L18.1304 28.2013C17.7531 29.2662 16.2469 29.2662 15.8696 28.2013L15.3353 26.6934C14.0066 22.9435 11.0565 19.9934 7.3066 18.6647L5.79875 18.1304C4.73375 17.7531 4.73375 16.2469 5.79875 15.8696L7.3066 15.3353C11.0565 14.0066 14.0066 11.0565 15.3353 7.3066L15.8696 5.79875Z" fill="url(#paint0_radial_3_9)"/>
</g>
<defs>
<filter id="filter0_d_3_9" x="0" y="0" width="34" height="34" filterUnits="userSpaceOnUse" color-interpolation-filters="sRGB">
<feFlood flood-opacity="0" result="BackgroundImageFix"/>
<feColorMatrix in="SourceAlpha" type="matrix" values="0 0 0 0 0 0 0 0 0 0 0 0 0 0 0 0 0 0 127 0" result="hardAlpha"/>
<feOffset/>
<feGaussianBlur stdDeviation="2.5"/>
<feComposite in2="hardAlpha" operator="out"/>
<feColorMatrix type="matrix" values="0 0 0 0 0.858333 0 0 0 0 0.390148 0 0 0 0 0.175243 0 0 0 1 0"/>
<feBlend mode="normal" in2="BackgroundImageFix" result="effect1_dropShadow_3_9"/>
<feBlend mode="normal" in="SourceGraphic" in2="effect1_dropShadow_3_9" result="shape"/>
</filter>
<radialGradient id="paint0_radial_3_9" cx="0" cy="0" r="1" gradientUnits="userSpaceOnUse" gradientTransform="translate(17 17) rotate(90) scale(12)">
<stop stop-color="#EE9267"/>
<stop offset="1" stop-color="#D95F27"/>
</radialGradient>
</defs>
</svg>
