<?xml version="1.0" encoding="utf-8"?>
<!-- Generator: Adobe Illustrator 16.0.4, SVG Export Plug-In . SVG Version: 6.00 Build 0)  -->
<!DOCTYPE svg PUBLIC "-//W3C//DTD SVG 1.1//EN" "http://www.w3.org/Graphics/SVG/1.1/DTD/svg11.dtd">
<svg version="1.1" id="Layer_1" xmlns="http://www.w3.org/2000/svg" xmlns:xlink="http://www.w3.org/1999/xlink" x="0px" y="0px"
	 width="60px" height="60px" viewBox="0 0 60 60" enable-background="new 0 0 60 60" xml:space="preserve">
<rect x="37.282" y="12.908" transform="matrix(0.874 -0.4859 0.4859 0.874 -4.013 22.2097)" fill="none" stroke="#FFFFFF" stroke-miterlimit="10" width="7.073" height="11.87"/>
<polyline fill="none" stroke="#FFFFFF" stroke-miterlimit="10" points="39.836,24.355 12.198,38.798 8.761,32.616 35.617,16.768 "/>
<polyline fill="none" stroke="#FFFFFF" stroke-miterlimit="10" points="14.233,29.379 11.752,24.917 14.477,23.402 16.922,27.8 "/>
<line fill="none" stroke="#FFFFFF" stroke-miterlimit="10" x1="27.204" y1="35.186" x2="16.719" y2="56.146"/>
<line fill="none" stroke="#FFFFFF" stroke-miterlimit="10" x1="27.204" y1="35.186" x2="37.689" y2="56.146"/>
<line fill="none" stroke="#FFFFFF" stroke-miterlimit="10" x1="20.989" y1="47.608" x2="33.419" y2="47.608"/>
<circle fill="none" stroke="#FFFFFF" stroke-miterlimit="10" cx="27.204" cy="33.396" r="1.866"/>
<line fill="none" stroke="#FFFFFF" stroke-miterlimit="10" x1="13.735" y1="3.903" x2="13.735" y2="8.68"/>
<line fill="none" stroke="#FFFFFF" stroke-miterlimit="10" x1="16.124" y1="6.292" x2="11.347" y2="6.292"/>
<line fill="none" stroke="#FFFFFF" stroke-miterlimit="10" x1="42.347" y1="31.529" x2="42.347" y2="34.515"/>
<line fill="none" stroke="#FFFFFF" stroke-miterlimit="10" x1="43.839" y1="33.022" x2="40.854" y2="33.022"/>
<rect x="23.581" y="13.905" fill="none" stroke="#FFFFFF" stroke-miterlimit="10" width="0.1" height="0.1"/>
<rect x="30.918" y="3.853" fill="none" stroke="#FFFFFF" stroke-miterlimit="10" width="0.101" height="0.1"/>
<rect x="50.856" y="28.843" fill="none" stroke="#FFFFFF" stroke-miterlimit="10" width="0.1" height="0.1"/>
<rect x="40.804" y="43.556" fill="none" stroke="#FFFFFF" stroke-miterlimit="10" width="0.1" height="0.1"/>
</svg>
