<?xml version="1.0" encoding="utf-8"?>
<!-- Generator: Adobe Illustrator 16.0.4, SVG Export Plug-In . SVG Version: 6.00 Build 0)  -->
<!DOCTYPE svg PUBLIC "-//W3C//DTD SVG 1.1//EN" "http://www.w3.org/Graphics/SVG/1.1/DTD/svg11.dtd">
<svg version="1.1" id="Layer_1" xmlns="http://www.w3.org/2000/svg" xmlns:xlink="http://www.w3.org/1999/xlink" x="0px" y="0px"
	 width="60px" height="60px" viewBox="0 0 60 60" enable-background="new 0 0 60 60" xml:space="preserve">
<path fill="none" stroke="#372149" stroke-linejoin="round" stroke-miterlimit="10" d="M51.018,17.381
	c-1.528,0.678-3.169,1.136-4.893,1.342c1.759-1.055,3.108-2.724,3.745-4.712c-1.646,0.976-3.469,1.685-5.408,2.066
	c-1.554-1.655-3.769-2.689-6.217-2.689c-4.704,0-8.518,3.813-8.518,8.517c0,0.667,0.076,1.317,0.221,1.94
	c-7.079-0.355-13.355-3.746-17.555-8.899c-0.733,1.259-1.154,2.721-1.154,4.283c0,2.955,1.504,5.561,3.79,7.089
	c-1.396-0.044-2.71-0.427-3.858-1.065c-0.001,0.035-0.001,0.071-0.001,0.107c0,4.126,2.936,7.569,6.833,8.352
	c-0.715,0.193-1.467,0.298-2.244,0.298c-0.549,0-1.082-0.054-1.602-0.153c1.083,3.385,4.229,5.848,7.956,5.914
	c-2.915,2.285-6.587,3.646-10.578,3.646c-0.687,0-1.366-0.039-2.032-0.117c3.769,2.417,8.247,3.826,13.056,3.826
	c15.666,0,24.233-12.979,24.233-24.233c0-0.37-0.009-0.737-0.024-1.102C48.432,20.589,49.875,19.09,51.018,17.381z"/>
</svg>
